<svg xmlns="http://www.w3.org/2000/svg" width="276" height="15.876" viewBox="0 0 276 15.876">
  <g id="NBB_Logo-typo" data-name="NBB Logo-typo" transform="translate(-237.807 -3966.312)">
    <path id="パス_25" data-name="パス 25" d="M2749.143,3967.482v6.31h-6.31v-6.31h-3.155v15.774h3.155v-6.31h6.31v6.31h3.155v-15.774Z" transform="translate(-2285.49 -1.069)" fill="#fff"/>
    <path id="パス_26" data-name="パス 26" d="M248.849,3976.869l-7.887-10.558h-3.155v15.774h3.155v-10.557l7.887,10.557H252v-15.774h-3.155Z" transform="translate(0 0)" fill="#fff"/>
    <path id="パス_27" data-name="パス 27" d="M2371.688,3967.482h0a7.887,7.887,0,0,0-7.887,7.887h0a7.887,7.887,0,0,0,7.887,7.888h0a7.887,7.887,0,0,0,7.887-7.888h0A7.887,7.887,0,0,0,2371.688,3967.482Zm4.732,7.887a4.732,4.732,0,0,1-4.732,4.732h0a4.732,4.732,0,0,1-4.732-4.732h0a4.732,4.732,0,0,1,4.732-4.731h0a4.732,4.732,0,0,1,4.732,4.731Z" transform="translate(-1942.12 -1.069)" fill="#fff"/>
    <rect id="長方形_15" data-name="長方形 15" width="3.155" height="15.774" transform="translate(327.789 3966.413)" fill="#fff"/>
    <path id="パス_28" data-name="パス 28" d="M610.676,3967.482l4.732,15.774h3.181l-4.732-15.774Z" transform="translate(-340.62 -1.069)" fill="#fff"/>
    <path id="パス_29" data-name="パス 29" d="M690.1,3977.956l-3.142-10.474h-3.18l4.732,15.774h3.18l4.732-15.774h-3.18Z" transform="translate(-407.4 -1.069)" fill="#fff"/>
    <path id="パス_30" data-name="パス 30" d="M438.434,3967.482v15.774h12.619V3980.1h-9.465v-3.154h9.465v-3.155h-9.465v-3.154h9.465v-3.155Z" transform="translate(-183.275 -1.069)" fill="#fff"/>
    <path id="パス_31" data-name="パス 31" d="M1757.825,3967.482v15.774h12.619V3980.1h-9.465v-3.154h9.465v-3.155h-9.465v-3.154h9.465v-3.155Z" transform="translate(-1388.554 -1.069)" fill="#fff"/>
    <path id="パス_32" data-name="パス 32" d="M2922.066,3967.482v15.774h12.619V3980.1h-9.465v-3.154h9.465v-3.155h-9.465v-3.154h9.465v-3.155Z" transform="translate(-2452.103 -1.069)" fill="#fff"/>
    <path id="パス_33" data-name="パス 33" d="M933.367,3967.482H925.48v15.774h7.887a4.732,4.732,0,0,0,4.732-4.732h0a4.73,4.73,0,0,1,0-6.31h0A4.733,4.733,0,0,0,933.367,3967.482Zm1.577,11.042a1.577,1.577,0,0,1-1.577,1.577h-4.732v-3.154h4.732a1.577,1.577,0,0,1,1.577,1.577Zm0-6.31a1.578,1.578,0,0,1-1.577,1.577h-4.732v-3.154h4.732a1.577,1.577,0,0,1,1.577,1.577Z" transform="translate(-628.197 -1.069)" fill="#fff"/>
    <path id="パス_34" data-name="パス 34" d="M2025.427,3967.482h-7.887v15.774h7.887a4.732,4.732,0,0,0,4.732-4.732h0a4.728,4.728,0,0,1,0-6.31h0A4.733,4.733,0,0,0,2025.427,3967.482Zm1.578,11.042a1.577,1.577,0,0,1-1.578,1.577h-4.732v-3.154h4.732a1.577,1.577,0,0,1,1.578,1.577Zm0-6.31a1.578,1.578,0,0,1-1.578,1.577h-4.732v-3.154h4.732a1.577,1.577,0,0,1,1.578,1.577Z" transform="translate(-1625.807 -1.069)" fill="#fff"/>
    <path id="パス_35" data-name="パス 35" d="M1111.65,3967.482h-7.887v15.774h3.155v-6.31h3.786l2.524,6.31h3.155l-2.706-6.765a4.732,4.732,0,0,0,2.706-4.277h0A4.733,4.733,0,0,0,1111.65,3967.482Zm-4.732,3.155h4.732a1.577,1.577,0,0,1,1.578,1.577h0a1.578,1.578,0,0,1-1.578,1.577h-4.732Z" transform="translate(-791.061 -1.069)" fill="#fff"/>
    <path id="パス_36" data-name="パス 36" d="M2203.755,3967.482h-7.887v15.774h3.155v-6.31h3.786l2.524,6.31h3.155l-2.706-6.765a4.731,4.731,0,0,0,2.706-4.277h0A4.733,4.733,0,0,0,2203.755,3967.482Zm-4.732,3.155h4.732a1.577,1.577,0,0,1,1.578,1.577h0a1.577,1.577,0,0,1-1.578,1.577h-4.732Z" transform="translate(-1788.712 -1.069)" fill="#fff"/>
    <path id="パス_37" data-name="パス 37" d="M3112.341,3967.482h-7.887v15.774h3.155v-6.31h3.786l2.524,6.31h3.155l-2.706-6.765a4.731,4.731,0,0,0,2.706-4.277h0A4.732,4.732,0,0,0,3112.341,3967.482Zm-4.732,3.155h4.732a1.577,1.577,0,0,1,1.577,1.577h0a1.578,1.578,0,0,1-1.577,1.577h-4.732Z" transform="translate(-2618.715 -1.069)" fill="#fff"/>
    <path id="パス_38" data-name="パス 38" d="M3286.188,3973.792h-3.609a1.578,1.578,0,0,1-1.577-1.577h0a1.577,1.577,0,0,1,1.577-1.577h6.291v-3.155h-6.291a4.733,4.733,0,0,0-4.732,4.732h0a4.733,4.733,0,0,0,4.732,4.732h3.609a1.577,1.577,0,0,1,1.577,1.577h0a1.577,1.577,0,0,1-1.577,1.577H3278.3v3.155h7.887a4.732,4.732,0,0,0,4.732-4.732h0A4.732,4.732,0,0,0,3286.188,3973.792Z" transform="translate(-2777.113 -1.069)" fill="#fff"/>
    <path id="パス_39" data-name="パス 39" d="M1558.042,3973.792h-7.729v3.155h4.462a4.734,4.734,0,0,1-4.462,3.154h0a4.732,4.732,0,0,1-4.732-4.732h0a4.732,4.732,0,0,1,4.732-4.731h0a4.716,4.716,0,0,1,3.346,1.386l2.231-2.231a7.863,7.863,0,0,0-5.577-2.31h0a7.887,7.887,0,0,0-7.887,7.887h0a7.887,7.887,0,0,0,7.887,7.888h0a7.887,7.887,0,0,0,7.887-7.888h0a7.918,7.918,0,0,0-.158-1.577Z" transform="translate(-1191.784 -1.069)" fill="#fff"/>
    <path id="パス_40" data-name="パス 40" d="M2561.033,3967.482v3.125h4.732v12.649h3.155v-12.649h4.732v-3.125Z" transform="translate(-2122.294 -1.069)" fill="#fff"/>
    <path id="パス_41" data-name="パス 41" d="M1357.461,3967.482h-6.31v15.774h6.31a7.887,7.887,0,0,0,7.887-7.888h0A7.887,7.887,0,0,0,1357.461,3967.482Zm4.732,7.887a4.732,4.732,0,0,1-4.732,4.732h-3.155v-9.464h3.155a4.732,4.732,0,0,1,4.732,4.731Z" transform="translate(-1017.053 -1.069)" fill="#fff"/>
  </g>
</svg>
