<?xml version="1.0" encoding="utf-8"?>
<!-- Generator: Adobe Illustrator 21.0.0, SVG Export Plug-In . SVG Version: 6.00 Build 0)  -->
<svg version="1.1" id="レイヤー_1" xmlns="http://www.w3.org/2000/svg" xmlns:xlink="http://www.w3.org/1999/xlink" x="0px"
	 y="0px" viewBox="0 0 40.1 25" style="enable-background:new 0 0 40.1 25;" xml:space="preserve">
<style type="text/css">
	.st0{fill:none;}
	.st1{fill:#121212;}
</style>
<g id="menubar_Logo_WBG_" transform="translate(-43 -40.567)">
	<rect id="長方形_1561" x="26.8" y="29.6" class="st0" width="72" height="48"/>
	<path id="パス_21" class="st1" d="M54.4,59.3l-5-18.6l0,0v0c-0.7,0.1-1.3,0.4-1.8,0.8l0,0l-3.8,3.8c-0.7,0.7-1,1.8-0.8,2.8l0,0
		l4.5,16.9l0,0c0.1,0.4,0.5,0.6,0.8,0.5c0.1,0,0.2-0.1,0.3-0.2l0,0l0,0l0,0l5.4-5.4l0,0c0.1-0.1,0.2-0.3,0.2-0.5
		C54.4,59.4,54.4,59.3,54.4,59.3z"/>
	<path id="パス_22" class="st1" d="M81.1,50.8c0.4,1.6-0.5,3.2-2.1,3.7c-0.3,0.1-0.5,0.1-0.8,0.1c-0.6,0-1.1-0.2-1.6-0.5l-2.5-1.4
		l0,0c-0.7-0.4-1.1-1-1.4-1.7l0,0l-1.1-4l0,0c0-0.1,0-0.1,0-0.2c0-0.2,0.1-0.4,0.2-0.5l0,0l5.5-5.5l0,0c0.3-0.3,0.7-0.3,1,0
		c0.1,0.1,0.2,0.2,0.2,0.3l0,0L81.1,50.8L81.1,50.8z"/>
	<path id="パス_23" class="st1" d="M78.2,56.6L51.3,41.1L51,40.9l3.3,12.3l20.6,11.9l0,0c1.2,0.7,2.7,0.6,3.7-0.4l0,0c0,0,0,0,0,0
		l3.8-3.8c0.4-0.4,0.7-0.9,0.8-1.5L78.2,56.6L78.2,56.6z"/>
</g>
</svg>
