<svg xmlns="http://www.w3.org/2000/svg" width="216.001" height="115.164" viewBox="0 0 216.001 115.164">
  <g id="グループ_2" data-name="グループ 2" transform="translate(-0.599)">
    <path id="パス_25" data-name="パス 25" d="M2756.425,3967.482v11.164h-11.164v-11.164h-5.583v27.91h5.583v-11.163h11.164v11.163h5.582v-27.91Z" transform="translate(-2628.568 -3880.229)"/>
    <path id="パス_26" data-name="パス 26" d="M257.345,3984.992l-13.956-18.68h-5.582v27.911h5.582v-18.68l13.956,18.68h5.582v-27.911h-5.582Z" transform="translate(-237.208 -3966.312)"/>
    <path id="パス_27" data-name="パス 27" d="M2377.757,3967.482h0a13.956,13.956,0,0,0-13.956,13.956h0a13.954,13.954,0,0,0,13.956,13.955h0a13.954,13.954,0,0,0,13.956-13.955h0A13.956,13.956,0,0,0,2377.757,3967.482Zm8.374,13.956a8.373,8.373,0,0,1-8.374,8.373h0a8.372,8.372,0,0,1-8.373-8.373h0a8.372,8.372,0,0,1,8.373-8.373h0a8.373,8.373,0,0,1,8.374,8.373Z" transform="translate(-2310.211 -3880.229)"/>
    <rect id="長方形_15" data-name="長方形 15" width="5.582" height="27.911" transform="translate(54.577 44.643)"/>
    <path id="パス_28" data-name="パス 28" d="M610.676,3967.482l8.374,27.91h5.627l-8.373-27.91Z" transform="translate(-553.015 -3967.303)"/>
    <path id="パス_29" data-name="パス 29" d="M694.966,3986.016l-5.56-18.533h-5.628l8.373,27.91h5.628l8.374-27.91h-5.628Z" transform="translate(-614.931 -3967.303)"/>
    <path id="パス_30" data-name="パス 30" d="M438.434,3967.482v27.91h22.329v-5.582H444.016v-5.582h16.747v-5.583H444.016v-5.582h16.747v-5.583Z" transform="translate(-407.132 -3967.303)"/>
    <path id="パス_31" data-name="パス 31" d="M1757.825,3967.482v27.91h22.329v-5.582h-16.747v-5.582h16.747v-5.583h-16.747v-5.582h16.747v-5.583Z" transform="translate(-1629.849 -3922.84)"/>
    <path id="パス_32" data-name="パス 32" d="M2922.066,3967.482v27.91h22.328v-5.582h-16.747v-5.582h16.747v-5.583h-16.747v-5.582h16.747v-5.583Z" transform="translate(-2783.043 -3880.229)"/>
    <path id="パス_33" data-name="パス 33" d="M939.436,3967.482H925.48v27.91h13.956a8.372,8.372,0,0,0,8.373-8.372h0a8.37,8.37,0,0,1,0-11.165h0A8.373,8.373,0,0,0,939.436,3967.482Zm2.791,19.538a2.791,2.791,0,0,1-2.791,2.791h-8.373v-5.582h8.373a2.791,2.791,0,0,1,2.791,2.791Zm0-11.165a2.792,2.792,0,0,1-2.791,2.792h-8.373v-5.583h8.373a2.791,2.791,0,0,1,2.791,2.791Z" transform="translate(-924.88 -3922.84)"/>
    <path id="パス_34" data-name="パス 34" d="M2031.5,3967.482H2017.54v27.91H2031.5a8.372,8.372,0,0,0,8.373-8.372h0a8.37,8.37,0,0,1,0-11.165h0A8.373,8.373,0,0,0,2031.5,3967.482Zm2.791,19.538a2.791,2.791,0,0,1-2.791,2.791h-8.374v-5.582h8.374a2.791,2.791,0,0,1,2.791,2.791Zm0-11.165a2.792,2.792,0,0,1-2.791,2.792h-8.374v-5.583h8.374a2.791,2.791,0,0,1,2.791,2.791Z" transform="translate(-2016.941 -3880.229)"/>
    <path id="パス_35" data-name="パス 35" d="M1117.719,3967.482h-13.956v27.91h5.583v-11.163h6.7l4.466,11.163h5.582l-4.788-11.969a8.374,8.374,0,0,0,4.788-7.568h0A8.373,8.373,0,0,0,1117.719,3967.482Zm-8.373,5.583h8.373a2.791,2.791,0,0,1,2.791,2.791h0a2.792,2.792,0,0,1-2.791,2.792h-8.373Z" transform="translate(-1075.88 -3922.84)"/>
    <path id="パス_36" data-name="パス 36" d="M2209.824,3967.482h-13.956v27.91h5.583v-11.163h6.7l4.466,11.163h5.582l-4.788-11.969a8.374,8.374,0,0,0,4.788-7.568h0A8.373,8.373,0,0,0,2209.824,3967.482Zm-8.374,5.583h8.374a2.791,2.791,0,0,1,2.791,2.791h0a2.792,2.792,0,0,1-2.791,2.792h-8.374Z" transform="translate(-2167.978 -3880.229)"/>
    <path id="パス_37" data-name="パス 37" d="M3118.409,3967.482h-13.956v27.91h5.582v-11.163h6.7l4.466,11.163h5.582l-4.788-11.969a8.374,8.374,0,0,0,4.788-7.568h0A8.373,8.373,0,0,0,3118.409,3967.482Zm-8.374,5.583h8.374a2.791,2.791,0,0,1,2.791,2.791h0a2.792,2.792,0,0,1-2.791,2.792h-8.374Z" transform="translate(-2937.52 -3880.229)"/>
    <path id="パス_38" data-name="パス 38" d="M3292.606,3978.647h-6.385a2.791,2.791,0,0,1-2.791-2.792h0a2.79,2.79,0,0,1,2.791-2.791h11.131v-5.583h-11.131a8.373,8.373,0,0,0-8.374,8.373h0a8.373,8.373,0,0,0,8.374,8.374h6.385a2.791,2.791,0,0,1,2.791,2.791h0a2.791,2.791,0,0,1-2.791,2.791h-13.955v5.582h13.955a8.372,8.372,0,0,0,8.374-8.372h0A8.373,8.373,0,0,0,3292.606,3978.647Z" transform="translate(-3084.379 -3880.229)"/>
    <path id="パス_39" data-name="パス 39" d="M1570.057,3978.647h-13.676v5.582h7.9a8.376,8.376,0,0,1-7.9,5.582h0a8.372,8.372,0,0,1-8.374-8.373h0a8.373,8.373,0,0,1,8.374-8.373h0a8.343,8.343,0,0,1,5.92,2.453l3.948-3.948a13.914,13.914,0,0,0-9.868-4.087h0a13.956,13.956,0,0,0-13.956,13.956h0a13.954,13.954,0,0,0,13.956,13.955h0a13.954,13.954,0,0,0,13.955-13.955h0a14.008,14.008,0,0,0-.28-2.792Z" transform="translate(-1447.412 -3922.84)"/>
    <path id="パス_40" data-name="パス 40" d="M2561.033,3967.482v5.53h8.374v22.38h5.583v-22.38h8.373v-5.53Z" transform="translate(-2477.261 -3880.229)"/>
    <path id="パス_41" data-name="パス 41" d="M1362.316,3967.482h-11.165v27.91h11.165a13.954,13.954,0,0,0,13.955-13.955h0A13.955,13.955,0,0,0,1362.316,3967.482Zm8.373,13.956a8.372,8.372,0,0,1-8.373,8.373h-5.582v-16.746h5.582a8.373,8.373,0,0,1,8.373,8.373Z" transform="translate(-1285.41 -3922.84)"/>
  </g>
</svg>
